<?xml version="1.0" standalone="no"?>
<!DOCTYPE svg PUBLIC "-//W3C//DTD SVG 20010904//EN"
 "http://www.w3.org/TR/2001/REC-SVG-20010904/DTD/svg10.dtd">
<svg version="1.0" xmlns="http://www.w3.org/2000/svg"
 width="1023.000000pt" height="1023.000000pt" viewBox="0 0 1023.000000 1023.000000"
 preserveAspectRatio="xMidYMid meet">
<metadata>
Created by potrace 1.16, written by Peter Selinger 2001-2019
</metadata>
<g transform="translate(0.000000,1023.000000) scale(0.100000,-0.100000)"
fill="#000000" stroke="none">
<path d="M0 9145 l0 -1085 1085 0 1085 0 0 1085 0 1085 -1085 0 -1085 0 0
-1085z m1850 0 l0 -765 -765 0 -765 0 0 765 0 765 765 0 765 0 0 -765z"/>
<path d="M620 9145 l0 -465 465 0 465 0 0 465 0 465 -465 0 -465 0 0 -465z"/>
<path d="M3100 9765 l0 -465 -155 0 -155 0 0 -310 0 -310 -155 0 -155 0 0
-465 0 -465 -620 0 -620 0 0 -310 0 -310 -155 0 -155 0 0 155 0 155 -155 0
-155 0 0 -155 0 -155 -155 0 -155 0 0 -155 0 -155 -155 0 -155 0 0 -155 0
-155 155 0 155 0 0 -155 0 -155 155 0 155 0 0 -155 0 -155 155 0 155 0 0 -310
0 -310 155 0 155 0 0 310 0 310 155 0 155 0 0 -155 0 -155 465 0 465 0 0 -155
0 -155 -310 0 -310 0 0 -155 0 -155 310 0 310 0 0 -155 0 -155 -310 0 -310 0
0 -155 0 -155 155 0 155 0 0 -155 0 -155 -155 0 -155 0 0 -155 0 -155 -155 0
-155 0 0 310 0 310 -465 0 -465 0 0 155 0 155 155 0 155 0 0 155 0 155 -155 0
-155 0 0 155 0 155 -155 0 -155 0 0 -155 0 -155 155 0 155 0 0 -155 0 -155
-310 0 -310 0 0 -310 0 -310 155 0 155 0 0 -155 0 -155 -155 0 -155 0 0 -155
0 -155 310 0 310 0 0 -155 0 -155 155 0 155 0 0 310 0 310 310 0 310 0 0 -155
0 -155 -155 0 -155 0 0 -155 0 -155 155 0 155 0 0 -155 0 -155 155 0 155 0 0
-155 0 -155 155 0 155 0 0 155 0 155 -155 0 -155 0 0 155 0 155 155 0 155 0 0
155 0 155 155 0 155 0 0 -155 0 -155 155 0 155 0 0 155 0 155 155 0 155 0 0
-310 0 -310 -155 0 -155 0 0 -155 0 -155 -155 0 -155 0 0 -620 0 -620 465 0
465 0 0 465 0 465 -155 0 -155 0 0 155 0 155 465 0 465 0 0 155 0 155 155 0
155 0 0 -155 0 -155 155 0 155 0 0 -155 0 -155 155 0 155 0 0 -155 0 -155 155
0 155 0 0 -155 0 -155 -155 0 -155 0 0 -465 0 -465 -155 0 -155 0 0 310 0 310
-155 0 -155 0 0 465 0 465 -310 0 -310 0 0 -155 0 -155 155 0 155 0 0 -155 0
-155 -155 0 -155 0 0 -310 0 -310 -155 0 -155 0 0 -155 0 -155 155 0 155 0 0
-155 0 -155 -155 0 -155 0 0 -155 0 -155 155 0 155 0 0 155 0 155 155 0 155 0
0 -155 0 -155 155 0 155 0 0 155 0 155 155 0 155 0 0 -155 0 -155 155 0 155 0
0 310 0 310 310 0 310 0 0 155 0 155 155 0 155 0 0 -155 0 -155 155 0 155 0 0
-155 0 -155 -155 0 -155 0 0 -155 0 -155 155 0 155 0 0 155 0 155 155 0 155 0
0 -155 0 -155 155 0 155 0 0 155 0 155 155 0 155 0 0 -155 0 -155 465 0 465 0
0 155 0 155 155 0 155 0 0 -155 0 -155 155 0 155 0 0 155 0 155 155 0 155 0 0
-155 0 -155 155 0 155 0 0 155 0 155 -155 0 -155 0 0 310 0 310 465 0 465 0 0
155 0 155 -465 0 -465 0 0 155 0 155 155 0 155 0 0 310 0 310 155 0 155 0 0
-310 0 -310 310 0 310 0 0 155 0 155 -155 0 -155 0 0 310 0 310 -465 0 -465 0
0 155 0 155 -620 0 -620 0 0 310 0 310 155 0 155 0 0 155 0 155 155 0 155 0 0
-310 0 -310 310 0 310 0 0 155 0 155 -155 0 -155 0 0 155 0 155 310 0 310 0 0
-155 0 -155 155 0 155 0 0 -310 0 -310 310 0 310 0 0 155 0 155 -155 0 -155 0
0 310 0 310 155 0 155 0 0 155 0 155 -155 0 -155 0 0 -155 0 -155 -310 0 -310
0 0 155 0 155 -310 0 -310 0 0 -155 0 -155 -155 0 -155 0 0 310 0 310 155 0
155 0 0 310 0 310 155 0 155 0 0 310 0 310 -310 0 -310 0 0 155 0 155 -155 0
-155 0 0 155 0 155 155 0 155 0 0 155 0 155 -155 0 -155 0 0 155 0 155 310 0
310 0 0 -310 0 -310 310 0 310 0 0 155 0 155 -155 0 -155 0 0 155 0 155 310 0
310 0 0 -155 0 -155 155 0 155 0 0 -155 0 -155 -155 0 -155 0 0 -930 0 -930
155 0 155 0 0 310 0 310 155 0 155 0 0 155 0 155 -155 0 -155 0 0 465 0 465
155 0 155 0 0 310 0 310 -155 0 -155 0 0 465 0 465 -155 0 -155 0 0 -155 0
-155 -310 0 -310 0 0 -155 0 -155 -155 0 -155 0 0 310 0 310 -310 0 -310 0 0
-155 0 -155 155 0 155 0 0 -155 0 -155 -155 0 -155 0 0 -155 0 -155 -155 0
-155 0 0 155 0 155 -155 0 -155 0 0 155 0 155 155 0 155 0 0 155 0 155 -155 0
-155 0 0 -155 0 -155 -155 0 -155 0 0 155 0 155 -155 0 -155 0 0 155 0 155
155 0 155 0 0 155 0 155 -155 0 -155 0 0 155 0 155 310 0 310 0 0 -310 0 -310
155 0 155 0 0 310 0 310 -155 0 -155 0 0 155 0 155 -310 0 -310 0 0 -155 0
-155 -155 0 -155 0 0 155 0 155 -155 0 -155 0 0 155 0 155 310 0 310 0 0 155
0 155 155 0 155 0 0 155 0 155 155 0 155 0 0 -155 0 -155 155 0 155 0 0 310 0
310 -310 0 -310 0 0 -155 0 -155 -155 0 -155 0 0 155 0 155 -310 0 -310 0 0
-465 0 -465 -155 0 -155 0 0 465 0 465 -155 0 -155 0 0 -155 0 -155 -310 0
-310 0 0 155 0 155 -155 0 -155 0 0 -155 0 -155 -155 0 -155 0 0 155 0 155
-310 0 -310 0 0 -155 0 -155 -155 0 -155 0 0 155 0 155 -155 0 -155 0 0 -465z
m1240 0 l0 -155 155 0 155 0 0 155 0 155 155 0 155 0 0 -310 0 -310 310 0 310
0 0 -155 0 -155 310 0 310 0 0 -155 0 -155 155 0 155 0 0 -155 0 -155 155 0
155 0 0 -155 0 -155 -155 0 -155 0 0 155 0 155 -155 0 -155 0 0 -310 0 -310
-155 0 -155 0 0 -310 0 -310 155 0 155 0 0 -155 0 -155 155 0 155 0 0 310 0
310 310 0 310 0 0 -310 0 -310 155 0 155 0 0 -155 0 -155 -155 0 -155 0 0
-620 0 -620 310 0 310 0 0 155 0 155 -155 0 -155 0 0 310 0 310 155 0 155 0 0
155 0 155 155 0 155 0 0 -155 0 -155 -155 0 -155 0 0 -310 0 -310 155 0 155 0
0 -310 0 -310 155 0 155 0 0 155 0 155 155 0 155 0 0 -155 0 -155 -155 0 -155
0 0 -155 0 -155 -155 0 -155 0 0 155 0 155 -465 0 -465 0 0 -155 0 -155 -155
0 -155 0 0 770 0 769 -157 3 -158 3 -3 152 -3 152 -152 3 -152 3 -3 158 -3
157 -614 0 -615 0 0 310 0 310 -310 0 -310 0 0 -155 0 -155 -310 0 -310 0 0
-155 0 -155 160 0 161 0 -3 -157 -3 -158 -152 -3 -152 -3 -3 -152 -3 -152
-312 4 -313 3 0 -156 0 -156 -155 0 -155 0 0 310 0 310 -155 0 -155 0 0 155 0
155 -155 0 -155 0 0 -155 0 -155 -155 0 -155 0 0 -155 0 -155 155 0 155 0 0
-155 0 -155 -310 0 -310 0 0 155 0 155 -155 0 -155 0 0 -155 0 -155 -155 0
-155 0 0 155 0 155 -155 0 -155 0 0 155 0 155 -155 0 -155 0 0 155 0 155 620
0 620 0 0 310 0 310 465 0 465 0 0 155 0 155 155 0 155 0 0 310 0 310 155 0
155 0 0 -310 0 -310 155 0 155 0 0 310 0 310 155 0 155 0 0 155 0 155 -310 0
-310 0 0 310 0 310 155 0 155 0 0 -155 0 -155 465 0 465 0 0 310 0 310 -155 0
-155 0 0 -155 0 -155 -155 0 -155 0 0 310 0 310 310 0 310 0 0 -155z m1558
-3402 l3 -152 152 -3 152 -3 3 -152 3 -152 152 -3 152 -3 0 -625 0 -625 -152
-3 -152 -3 -3 -152 -3 -152 -307 -3 -308 -2 -2 -308 -3 -307 -160 0 -160 0 -3
153 -3 152 -144 0 -144 0 -3 -152 -3 -153 -160 0 -160 0 -3 153 -3 152 -144 0
-144 0 -3 -152 -3 -153 -160 0 -160 0 -3 307 -2 307 -153 3 -152 3 0 160 0
160 308 3 307 2 0 300 0 300 -307 2 -308 3 0 315 0 315 152 3 152 3 3 152 3
152 153 3 152 3 0 148 c0 81 3 151 7 154 3 4 356 6 782 5 l776 -3 3 -152z
m-2488 -938 l0 -155 -155 0 -155 0 0 155 0 155 155 0 155 0 0 -155z m0 -620
l0 -155 -155 0 -155 0 0 155 0 155 155 0 155 0 0 -155z m-620 -310 l0 -155
-155 0 -155 0 0 155 0 155 155 0 155 0 0 -155z m620 -305 l0 -149 158 -3 157
-3 3 -312 2 -313 305 0 305 0 0 -155 0 -155 155 0 155 0 0 -155 0 -155 -155 0
-155 0 0 155 0 155 -155 0 -155 0 0 -155 0 -155 -155 0 -155 0 0 155 0 155
-155 0 -155 0 0 465 0 465 -155 0 -155 0 0 155 0 155 155 0 155 0 0 -150z
m4650 -160 l0 -310 -155 0 -155 0 0 -155 0 -155 -155 0 -155 0 0 155 0 155
-155 0 -155 0 0 -155 0 -155 -470 0 -471 0 3 158 3 157 152 3 152 3 3 152 3
152 158 3 157 3 0 149 0 150 620 0 620 0 0 -310z m-5270 -155 l0 -155 -155 0
-155 0 0 155 0 155 155 0 155 0 0 -155z m-620 -310 l0 -155 -155 0 -155 0 0
-155 0 -155 -155 0 -155 0 0 155 0 155 155 0 155 0 0 155 0 155 155 0 155 0 0
-155z m3410 -620 l0 -155 310 0 310 0 0 -155 0 -155 155 0 155 0 0 -155 0
-155 310 0 310 0 0 155 0 155 155 0 155 0 0 -620 0 -620 -155 0 -155 0 0 -155
0 -155 310 0 310 0 0 155 0 155 155 0 155 0 0 -155 0 -155 -155 0 -155 0 0
-155 0 -155 -465 0 -465 0 0 -155 0 -155 -155 0 -155 0 0 155 0 155 -155 0
-155 0 0 155 0 155 155 0 155 0 0 155 0 155 -155 0 -155 0 0 155 0 155 155 0
155 0 0 310 0 310 -310 0 -310 0 0 -465 0 -465 -155 0 -155 0 0 -155 0 -155
-155 0 -155 0 0 155 0 155 155 0 155 0 0 310 0 310 -155 0 -155 0 0 310 0 310
-155 0 -155 0 0 155 0 155 155 0 155 0 0 155 0 155 155 0 155 0 0 -155z m1860
0 l0 -155 -310 0 -310 0 0 155 0 155 310 0 310 0 0 -155z m1240 -930 l0 -465
-465 0 -465 0 0 465 0 465 465 0 465 0 0 -465z m-5580 -310 l0 -155 -155 0
-155 0 0 155 0 155 155 0 155 0 0 -155z m1240 -930 l0 -155 -310 0 -310 0 0
155 0 155 310 0 310 0 0 -155z m4340 0 l0 -155 -155 0 -155 0 0 155 0 155 155
0 155 0 0 -155z"/>
<path d="M4650 8835 l0 -155 310 0 310 0 0 -155 0 -155 -155 0 -155 0 0 -310
0 -310 155 0 155 0 0 -310 0 -310 155 0 155 0 0 310 0 310 -155 0 -155 0 0
310 0 310 155 0 155 0 0 -155 0 -155 155 0 155 0 0 155 0 155 155 0 155 0 0
155 0 155 -155 0 -155 0 0 -155 0 -155 -155 0 -155 0 0 155 0 155 -155 0 -155
0 0 155 0 155 -310 0 -310 0 0 -155z"/>
<path d="M4030 8525 l0 -155 -155 0 -155 0 0 -155 0 -155 155 0 155 0 0 -310
0 -310 155 0 155 0 0 155 0 155 155 0 155 0 0 310 0 310 -155 0 -155 0 0 155
0 155 -155 0 -155 0 0 -155z m310 -310 l0 -155 -155 0 -155 0 0 155 0 155 155
0 155 0 0 -155z"/>
<path d="M2790 7595 l0 -155 155 0 155 0 0 -310 0 -310 -155 0 -155 0 0 -155
0 -155 310 0 310 0 0 310 0 310 155 0 155 0 0 155 0 155 -310 0 -310 0 0 155
0 155 -155 0 -155 0 0 -155z"/>
<path d="M1860 6975 l0 -155 -155 0 -155 0 0 -155 0 -155 155 0 155 0 0 155 0
155 155 0 155 0 0 155 0 155 -155 0 -155 0 0 -155z"/>
<path d="M5280 4960 l0 -300 300 0 300 0 0 300 0 300 -300 0 -300 0 0 -300z"/>
<path d="M4660 4805 l0 -145 145 0 145 0 0 145 0 145 -145 0 -145 0 0 -145z"/>
<path d="M6820 3875 l0 -155 155 0 155 0 0 155 0 155 -155 0 -155 0 0 -155z"/>
<path d="M5270 2635 l0 -155 155 0 155 0 0 155 0 155 -155 0 -155 0 0 -155z"/>
<path d="M6820 1550 l0 -310 155 0 155 0 0 310 0 310 -155 0 -155 0 0 -310z"/>
<path d="M6510 775 l0 -155 155 0 155 0 0 155 0 155 -155 0 -155 0 0 -155z"/>
<path d="M8060 2015 l0 -155 155 0 155 0 0 155 0 155 -155 0 -155 0 0 -155z"/>
<path d="M8060 9145 l0 -1085 1085 0 1085 0 0 1085 0 1085 -1085 0 -1085 0 0
-1085z m1850 0 l0 -765 -765 0 -765 0 0 765 0 765 765 0 765 0 0 -765z"/>
<path d="M8680 9145 l0 -465 465 0 465 0 0 465 0 465 -465 0 -465 0 0 -465z"/>
<path d="M2480 9765 l0 -155 155 0 155 0 0 155 0 155 -155 0 -155 0 0 -155z"/>
<path d="M1240 4805 l0 -155 155 0 155 0 0 155 0 155 -155 0 -155 0 0 -155z"/>
<path d="M8990 4495 l0 -155 155 0 155 0 0 155 0 155 -155 0 -155 0 0 -155z"/>
<path d="M0 2635 l0 -155 310 0 310 0 0 155 0 155 -310 0 -310 0 0 -155z"/>
<path d="M0 1085 l0 -1085 1085 0 1085 0 0 1085 0 1085 -1085 0 -1085 0 0
-1085z m1850 0 l0 -765 -765 0 -765 0 0 765 0 765 765 0 765 0 0 -765z"/>
<path d="M620 1085 l0 -465 465 0 465 0 0 465 0 465 -465 0 -465 0 0 -465z"/>
<path d="M2790 620 l0 -310 155 0 155 0 0 310 0 310 -155 0 -155 0 0 -310z"/>
<path d="M5270 155 l0 -155 155 0 155 0 0 155 0 155 -155 0 -155 0 0 -155z"/>
<path d="M9920 155 l0 -155 155 0 155 0 0 155 0 155 -155 0 -155 0 0 -155z"/>
</g>
</svg>
